<?xml version="1.0" encoding="utf-8"?>
<!-- Generator: Adobe Illustrator 24.0.1, SVG Export Plug-In . SVG Version: 6.00 Build 0)  -->
<svg version="1.1" id="레이어_1" xmlns="http://www.w3.org/2000/svg" xmlns:xlink="http://www.w3.org/1999/xlink" x="0px"
	 y="0px" viewBox="0 0 563.49 483.46" style="enable-background:new 0 0 563.49 483.46;" xml:space="preserve">
<style type="text/css">
	.st0{fill:blue;}
</style>
<g>
	<path d="M556.74,202.17c-1.82,36.1-14.55,66.99-44.73,88.59c-37.87,27.11-82.66,12.87-98.66-30.78
		c-15.7-42.84,2.08-97.61,39.96-123.02c39.12-26.24,85.06-9.91,98.82,35.18C555.1,181.88,556.97,191.83,556.74,202.17z"/>
	<path d="M117.69,85.55c-0.07-16.44,3.65-31.87,13.05-45.58c15.71-22.9,43.34-30.89,71.2-20.75c47.4,17.26,78.04,79.15,63.05,127.35
		c-12.32,39.62-49.91,56.26-87.42,37.76c-32.13-15.85-50.01-43.11-57.91-77.42c-0.94-4.09-1.49-8.28-1.91-12.46
		C117.45,91.51,117.69,88.52,117.69,85.55z"/>
	<path d="M6.98,213.46c-0.19-1.8-0.27-3.62-0.23-5.42c0.7-37.75,18.67-59.78,48.55-64.64c19.46-3.16,37.51,2.53,53.78,12.71
		c31.44,19.67,51.14,47.59,56.14,84.88c4.73,35.3-14.49,63.76-47.29,69.31c-19.13,3.24-36.98-2.07-53.22-11.98
		C30.32,277.33,10.56,247.11,6.98,213.46z"/>
	<path d="M428.58,90.47c-1.27,26.87-11.49,54.68-35.59,76.27c-35.74,32.01-83.56,21.24-102.07-22.85
		c-17.1-40.72-2.85-95.06,32.03-122.17c36.7-28.52,82.42-15.77,99.04,27.69C426.44,61.06,428.72,73.16,428.58,90.47z"/>
	<g>
		<path class="st0" d="M403.97,458.01c-8.75,8.33-18.5,13.15-28.97,16c15.84-3.42,28.06-12.24,41.87-29.64
			C412.9,449.1,408.56,453.63,403.97,458.01z"/>
		<path d="M333.65,474.27c16.9,1.88,30.05,2.17,41.35-0.27c10.46-2.85,20.21-7.67,28.97-16c4.59-4.37,8.93-8.91,12.9-13.64
			c2.94-3.7,5.95-7.78,9.09-12.29c5.76-9.03,10.04-18.83,12.12-29.72c1.82-7.26,2.62-15,2.27-23.25
			c1.54-52.47-21.68-95.1-63.5-129.66c-16.57-13.69-35.39-23.3-55.92-29.81c-10.04-3.18-19.77-4.07-29.29-4.07
			s-19.25,0.89-29.29,4.07c-20.53,6.51-39.35,16.12-55.92,29.81c-41.82,34.56-65.04,77.2-63.5,129.66
			c-0.36,8.25,0.45,15.99,2.27,23.25c4.25,22.2,17.58,39.92,34.11,55.65c10.79,10.27,23.1,15.2,36.38,17.68c0,0,0.26,0.03,0.75,0.1
			c12.53,1.59,25.21,1.59,37.75,0.07C293.53,471.08,293.1,469.77,333.65,474.27z"/>
		<path d="M425.96,432.07c-3.14,4.51-6.14,8.59-9.09,12.29C420.18,440.42,423.24,436.34,425.96,432.07z"/>
	</g>
</g>
</svg>
